<svg width="33" height="33" viewBox="0 0 33 33" fill="none" xmlns="http://www.w3.org/2000/svg">
<g clip-path="url(#clip0_2129_2363)">
<path d="M29.7638 25.3499C28.9067 24.5858 28.1562 23.7098 27.5327 22.7455C26.8513 21.4147 26.4433 19.9609 26.3327 18.4699V14.0788C26.3386 11.7372 25.4892 9.47392 23.944 7.71436C22.3989 5.9548 20.2644 4.82004 17.9416 4.52327V3.37661C17.9416 3.06188 17.8166 2.76005 17.594 2.53751C17.3715 2.31496 17.0696 2.18994 16.7549 2.18994C16.4402 2.18994 16.1384 2.31496 15.9158 2.53751C15.6933 2.76005 15.5683 3.06188 15.5683 3.37661V4.54105C13.2663 4.85921 11.1576 6.00084 9.63273 7.75448C8.10789 9.50813 7.27024 11.755 7.27493 14.0788V18.4699C7.16431 19.9609 6.75629 21.4147 6.07493 22.7455C5.46238 23.7076 4.72399 24.5835 3.87937 25.3499C3.78455 25.4332 3.70856 25.5358 3.65645 25.6507C3.60434 25.7657 3.57731 25.8904 3.57715 26.0166V27.2255C3.57715 27.4612 3.6708 27.6873 3.8375 27.854C4.0042 28.0207 4.23029 28.1144 4.46604 28.1144H29.1771C29.4129 28.1144 29.639 28.0207 29.8057 27.854C29.9724 27.6873 30.066 27.4612 30.066 27.2255V26.0166C30.0659 25.8904 30.0388 25.7657 29.9867 25.6507C29.9346 25.5358 29.8586 25.4332 29.7638 25.3499ZM5.42604 26.3366C6.25288 25.5375 6.98103 24.6422 7.59493 23.6699C8.45341 22.0628 8.95375 20.2888 9.06159 18.4699V14.0788C9.02634 13.0371 9.20108 11.9989 9.57541 11.0261C9.94974 10.0533 10.516 9.16575 11.2405 8.41634C11.965 7.66694 12.8328 7.07098 13.7924 6.66396C14.752 6.25695 15.7837 6.04719 16.826 6.04719C17.8684 6.04719 18.9001 6.25695 19.8597 6.66396C20.8192 7.07098 21.6871 7.66694 22.4116 8.41634C23.1361 9.16575 23.7023 10.0533 24.0767 11.0261C24.451 11.9989 24.6257 13.0371 24.5905 14.0788V18.4699C24.6983 20.2888 25.1987 22.0628 26.0571 23.6699C26.671 24.6422 27.3992 25.5375 28.226 26.3366H5.42604Z" fill="#171717" fill-opacity="0.8"/>
<path d="M16.8666 31.0826C17.4265 31.0697 17.9639 30.8592 18.3836 30.4883C18.8033 30.1174 19.0783 29.61 19.1599 29.0559H14.4844C14.5684 29.6251 14.8562 30.1444 15.2944 30.5172C15.7326 30.89 16.2913 31.0909 16.8666 31.0826Z" fill="#171717" fill-opacity="0.8"/>
</g>
<defs>
<clipPath id="clip0_2129_2363">
<rect width="32" height="32" fill="white" transform="translate(0.866211 0.611816)"/>
</clipPath>
</defs>
</svg>
