<svg width="51" height="33" viewBox="0 0 51 33" fill="none" xmlns="http://www.w3.org/2000/svg">
<path d="M16.2124 16.1051C16.1724 16.1051 16.1458 16.1051 16.1058 16.1051C16.0391 16.0918 15.9458 16.0918 15.8658 16.1051C11.9991 15.9851 9.0791 12.9451 9.0791 9.19844C9.0791 5.38511 12.1858 2.27844 15.9991 2.27844C19.8124 2.27844 22.9191 5.38511 22.9191 9.19844C22.9058 12.9451 19.9724 15.9851 16.2524 16.1051C16.2391 16.1051 16.2258 16.1051 16.2124 16.1051ZM15.9991 4.27844C13.2924 4.27844 11.0791 6.49178 11.0791 9.19844C11.0791 11.8651 13.1591 14.0118 15.8124 14.1051C15.8791 14.0918 16.0658 14.0918 16.2391 14.1051C18.8524 13.9851 20.9058 11.8384 20.9191 9.19844C20.9191 6.49178 18.7058 4.27844 15.9991 4.27844Z" fill="#171717" fill-opacity="0.8"/>
<path d="M16.2261 30.6785C13.6128 30.6785 10.9861 30.0119 8.99948 28.6785C7.14615 27.4519 6.13281 25.7719 6.13281 23.9452C6.13281 22.1185 7.14615 20.4252 8.99948 19.1852C12.9995 16.5319 19.4795 16.5319 23.4528 19.1852C25.2928 20.4119 26.3195 22.0919 26.3195 23.9185C26.3195 25.7452 25.3061 27.4385 23.4528 28.6785C21.4528 30.0119 18.8395 30.6785 16.2261 30.6785ZM10.1061 20.8652C8.82615 21.7185 8.13281 22.8119 8.13281 23.9585C8.13281 25.0919 8.83948 26.1852 10.1061 27.0252C13.4261 29.2519 19.0261 29.2519 22.3461 27.0252C23.6261 26.1719 24.3195 25.0785 24.3195 23.9319C24.3195 22.7985 23.6128 21.7052 22.3461 20.8652C19.0261 18.6519 13.4261 18.6519 10.1061 20.8652Z" fill="#171717" fill-opacity="0.8"/>
<path d="M41.9996 20.2118C41.4746 20.2118 40.9496 20.0093 40.5521 19.6118L35.6621 14.7218C35.4446 14.5043 35.4446 14.1443 35.6621 13.9268C35.8796 13.7093 36.2396 13.7093 36.4571 13.9268L41.3471 18.8168C41.7071 19.1768 42.2921 19.1768 42.6521 18.8168L47.5421 13.9268C47.7596 13.7093 48.1196 13.7093 48.3371 13.9268C48.5546 14.1443 48.5546 14.5043 48.3371 14.7218L43.4471 19.6118C43.0496 20.0093 42.5246 20.2118 41.9996 20.2118Z" fill="#171717"/>
</svg>
