<svg width="42" height="39" viewBox="0 0 42 39" fill="none" xmlns="http://www.w3.org/2000/svg">
<g clip-path="url(#clip0_2129_2358)">
<path d="M31.7396 15.8745C31.6479 15.7443 31.5262 15.6379 31.3848 15.5645C31.2434 15.4911 31.0865 15.4527 30.9271 15.4526H9.70414L8.09764 9.91261C7.46764 7.73111 5.97061 7.49561 5.35661 7.49561H1.07311C0.524078 7.49561 0.0800781 7.94011 0.0800781 8.48861C0.0800781 9.03711 0.524578 9.48157 1.07308 9.48157H5.35608C5.49158 9.48157 5.90508 9.48157 6.18711 10.4561L11.7136 30.7666C11.8336 31.1951 12.2241 31.491 12.6696 31.491H26.1686C26.5876 31.491 26.9616 31.2285 27.1031 30.834L31.8611 16.7815C31.9706 16.477 31.9251 16.138 31.7396 15.8745H31.7396ZM25.4698 29.5056H13.4233L10.2623 17.4391H29.5153L25.4698 29.5056ZM23.5003 33.5036C22.1193 33.5036 21.0003 34.6226 21.0003 36.0036C21.0003 37.3846 22.1193 38.5036 23.5003 38.5036C24.8813 38.5036 26.0003 37.3846 26.0003 36.0036C26.0003 34.6226 24.8813 33.5036 23.5003 33.5036ZM14.5003 33.5036C13.1193 33.5036 12.0003 34.6226 12.0003 36.0036C12.0003 37.3846 13.1193 38.5036 14.5003 38.5036C15.8813 38.5036 17.0003 37.3846 17.0003 36.0036C17.0003 34.6226 15.8813 33.5036 14.5003 33.5036Z" fill="#171717" fill-opacity="0.8"/>
</g>
<rect x="18.8662" y="1.22412" width="22" height="22" rx="11" fill="#0F4D68"/>
<rect x="18.8662" y="1.22412" width="22" height="22" rx="11" stroke="white" stroke-width="2"/>
<path d="M26.9997 9.63612C27.0477 8.89212 27.3317 8.31212 27.8517 7.89612C28.3797 7.48012 29.0517 7.27212 29.8677 7.27212C30.4277 7.27212 30.9117 7.37212 31.3197 7.57212C31.7277 7.77212 32.0357 8.04412 32.2437 8.38812C32.4517 8.73212 32.5557 9.12012 32.5557 9.55212C32.5557 10.0481 32.4237 10.4721 32.1597 10.8241C31.8957 11.1761 31.5797 11.4121 31.2117 11.5321V11.5801C31.6837 11.7241 32.0517 11.9881 32.3157 12.3721C32.5797 12.7481 32.7117 13.2321 32.7117 13.8241C32.7117 14.2961 32.6037 14.7161 32.3877 15.0841C32.1717 15.4521 31.8517 15.7441 31.4277 15.9601C31.0037 16.1681 30.4957 16.2721 29.9037 16.2721C29.0397 16.2721 28.3277 16.0521 27.7677 15.6121C27.2157 15.1641 26.9197 14.5241 26.8797 13.6921H28.1997C28.2317 14.1161 28.3957 14.4641 28.6917 14.7361C28.9877 15.0001 29.3877 15.1321 29.8917 15.1321C30.3797 15.1321 30.7557 15.0001 31.0197 14.7361C31.2837 14.4641 31.4157 14.1161 31.4157 13.6921C31.4157 13.1321 31.2357 12.7361 30.8757 12.5041C30.5237 12.2641 29.9797 12.1441 29.2437 12.1441H28.9317V11.0161H29.2557C29.9037 11.0081 30.3957 10.9001 30.7317 10.6921C31.0757 10.4841 31.2477 10.1561 31.2477 9.70812C31.2477 9.32412 31.1237 9.02012 30.8757 8.79612C30.6277 8.56412 30.2757 8.44812 29.8197 8.44812C29.3717 8.44812 29.0237 8.56412 28.7757 8.79612C28.5277 9.02012 28.3797 9.30012 28.3317 9.63612H26.9997Z" fill="white"/>
<defs>
<clipPath id="clip0_2129_2358">
<rect width="32" height="32" fill="white" transform="translate(0 6.99951)"/>
</clipPath>
</defs>
</svg>
