<svg width="32" height="33" viewBox="0 0 32 33" fill="none" xmlns="http://www.w3.org/2000/svg">
<path d="M16.0003 29.4784C15.587 29.4784 15.187 29.4251 14.8537 29.3051C9.76033 27.5584 1.66699 21.3584 1.66699 12.1984C1.66699 7.53178 5.44033 3.74512 10.0803 3.74512C12.3337 3.74512 14.4403 4.62512 16.0003 6.19845C17.5603 4.62512 19.667 3.74512 21.9203 3.74512C26.5603 3.74512 30.3337 7.54512 30.3337 12.1984C30.3337 21.3718 22.2403 27.5584 17.147 29.3051C16.8137 29.4251 16.4137 29.4784 16.0003 29.4784ZM10.0803 5.74512C6.54699 5.74512 3.66699 8.63845 3.66699 12.1984C3.66699 21.3051 12.427 26.3718 15.507 27.4251C15.747 27.5051 16.267 27.5051 16.507 27.4251C19.5737 26.3718 28.347 21.3184 28.347 12.1984C28.347 8.63845 25.467 5.74512 21.9337 5.74512C19.907 5.74512 18.027 6.69178 16.8137 8.33178C16.4403 8.83845 15.587 8.83845 15.2137 8.33178C13.9737 6.67845 12.107 5.74512 10.0803 5.74512Z" fill="#171717" fill-opacity="0.8"/>
</svg>
