<svg width="24" height="25" viewBox="0 0 24 25" fill="none" xmlns="http://www.w3.org/2000/svg">
<path d="M17 3.53735H7C5.93913 3.53735 4.92172 3.95878 4.17157 4.70893C3.42143 5.45907 3 6.47649 3 7.53735V17.5374C3 18.5982 3.42143 19.6156 4.17157 20.3658C4.92172 21.1159 5.93913 21.5374 7 21.5374H17C18.0609 21.5374 19.0783 21.1159 19.8284 20.3658C20.5786 19.6156 21 18.5982 21 17.5374V7.53735C21 6.47649 20.5786 5.45907 19.8284 4.70893C19.0783 3.95878 18.0609 3.53735 17 3.53735Z" stroke="black" stroke-width="1.5" stroke-linejoin="round"/>
<path d="M12 16.5374C13.0609 16.5374 14.0783 16.1159 14.8284 15.3658C15.5786 14.6156 16 13.5982 16 12.5374C16 11.4765 15.5786 10.4591 14.8284 9.70893C14.0783 8.95878 13.0609 8.53735 12 8.53735C10.9391 8.53735 9.92172 8.95878 9.17157 9.70893C8.42143 10.4591 8 11.4765 8 12.5374C8 13.5982 8.42143 14.6156 9.17157 15.3658C9.92172 16.1159 10.9391 16.5374 12 16.5374V16.5374Z" stroke="black" stroke-width="1.5" stroke-linejoin="round"/>
<path d="M17.5 8.03735C17.7652 8.03735 18.0196 7.932 18.2071 7.74446C18.3946 7.55692 18.5 7.30257 18.5 7.03735C18.5 6.77214 18.3946 6.51778 18.2071 6.33025C18.0196 6.14271 17.7652 6.03735 17.5 6.03735C17.2348 6.03735 16.9804 6.14271 16.7929 6.33025C16.6054 6.51778 16.5 6.77214 16.5 7.03735C16.5 7.30257 16.6054 7.55692 16.7929 7.74446C16.9804 7.932 17.2348 8.03735 17.5 8.03735Z" fill="black"/>
</svg>
