<svg width="24" height="25" viewBox="0 0 24 25" fill="none" xmlns="http://www.w3.org/2000/svg">
<path d="M11.5 9.58735C12.417 8.65035 13.611 8.03735 15 8.03735C16.4587 8.03735 17.8576 8.61682 18.8891 9.64827C19.9205 10.6797 20.5 12.0787 20.5 13.5374V21.0374H18.5V13.5374C18.5 12.6091 18.1313 11.7189 17.4749 11.0625C16.8185 10.4061 15.9283 10.0374 15 10.0374C14.0717 10.0374 13.1815 10.4061 12.5251 11.0625C11.8687 11.7189 11.5 12.6091 11.5 13.5374V21.0374H9.5V8.53735H11.5V9.58735ZM4.5 6.53735C4.10218 6.53735 3.72064 6.37932 3.43934 6.09801C3.15804 5.81671 3 5.43518 3 5.03735C3 4.63953 3.15804 4.258 3.43934 3.97669C3.72064 3.69539 4.10218 3.53735 4.5 3.53735C4.89782 3.53735 5.27936 3.69539 5.56066 3.97669C5.84196 4.258 6 4.63953 6 5.03735C6 5.43518 5.84196 5.81671 5.56066 6.09801C5.27936 6.37932 4.89782 6.53735 4.5 6.53735ZM3.5 8.53735H5.5V21.0374H3.5V8.53735Z" fill="black"/>
</svg>
