<svg width="24" height="25" viewBox="0 0 24 25" fill="none" xmlns="http://www.w3.org/2000/svg">
<g clip-path="url(#clip0_1_2356)">
<path d="M12.905 9.38386L12.905 9.38381C12.9194 8.5977 13.2418 7.84865 13.8028 7.29785C14.3639 6.74705 15.1188 6.43851 15.905 6.43864L12.905 9.38386ZM12.905 9.38386L12.877 10.9587M12.905 9.38386L12.877 10.9587M4.75811 8.34592L4.89001 8.45581C6.76679 10.0195 8.71781 10.9556 10.7495 11.2325C10.7495 11.2326 10.7495 11.2326 10.7495 11.2326L12.3104 11.4445L4.75811 8.34592ZM4.75811 8.34592L4.72759 8.51486M4.75811 8.34592L4.72759 8.51486M4.72759 8.51486C4.42576 10.1855 4.5683 11.6082 5.1479 12.8391C5.72718 14.0693 6.73827 15.0979 8.15577 15.9893L8.15579 15.9893M4.72759 8.51486L8.15579 15.9893M8.15579 15.9893L9.90279 17.0873L9.954 17.0058M8.15579 15.9893L9.954 17.0058M9.954 17.0058L9.90279 17.0873C9.97196 17.1308 10.0294 17.1905 10.0702 17.2614C10.1109 17.3322 10.1337 17.4119 10.1365 17.4935C10.1392 17.5752 10.122 17.6563 10.0862 17.7297C10.0504 17.8032 9.99716 17.8667 9.93112 17.9148L9.93101 17.9149M9.954 17.0058L9.93101 17.9149M9.93101 17.9149L8.33901 19.0779L8.11542 19.2412M9.93101 17.9149L8.11542 19.2412M8.11542 19.2412L8.39178 19.2584M8.11542 19.2412L8.39178 19.2584M8.39178 19.2584C9.3449 19.3178 10.2529 19.2758 11.0095 19.1257L11.0096 19.1257M8.39178 19.2584L11.0096 19.1257M11.0096 19.1257C13.3886 18.6507 15.3745 17.5167 16.7652 15.7584M11.0096 19.1257L16.7652 15.7584M12.877 10.9587C12.8757 11.0292 12.8594 11.0986 12.8293 11.1623C12.7993 11.2261 12.7561 11.2827 12.7026 11.3286C12.649 11.3745 12.5864 11.4085 12.5188 11.4285C12.4513 11.4485 12.3803 11.4539 12.3105 11.4445L12.877 10.9587ZM16.7652 15.7584C18.1557 14.0003 18.945 11.6257 18.945 8.67964M16.7652 15.7584L18.945 8.67964M18.945 8.67964C18.945 8.53403 18.8714 8.32209 18.744 8.09458M18.945 8.67964L18.744 8.09458M18.744 8.09458C18.6142 7.86294 18.4215 7.60244 18.1673 7.35784M18.744 8.09458L18.1673 7.35784M18.1673 7.35784C17.6587 6.86823 16.8999 6.43864 15.905 6.43864L18.1673 7.35784ZM20.4978 6.07577C20.8818 6.02123 21.3285 5.8808 21.916 5.54841C21.6101 7.03261 21.4321 7.70499 20.7642 8.62071L20.745 8.64705V8.67964C20.745 12.4789 19.578 15.2941 17.8258 17.277C16.0726 19.2612 13.7277 20.4186 11.3624 20.8906C9.74529 21.2132 7.7544 21.1101 5.99643 20.7479C5.11813 20.567 4.30077 20.3219 3.61983 20.0347C3.03727 19.7891 2.56009 19.5149 2.22956 19.2277C2.66065 19.1856 3.4114 19.0908 4.24366 18.8972C5.24355 18.6645 6.37173 18.2868 7.20306 17.6783L7.31918 17.5933L7.19904 17.5141C7.15724 17.4866 7.11178 17.457 7.06301 17.4252C6.30477 16.9312 4.74648 15.9159 3.73155 14.0539C2.66714 12.1011 2.19257 9.20031 3.91362 4.96327C5.57889 6.88082 7.2726 8.19736 8.99504 8.90415L8.99505 8.90416C9.57662 9.14271 9.94255 9.26108 10.2318 9.32876C10.4509 9.38 10.6261 9.40199 10.8117 9.42529C10.8703 9.43264 10.93 9.44013 10.9924 9.44871L11.2872 9.48924L11.1059 9.30813C11.131 8.37875 11.4254 7.47631 11.9539 6.71067C12.4904 5.93341 13.2442 5.33169 14.1211 4.98085C14.9979 4.63001 15.9588 4.54563 16.8833 4.73828C17.8079 4.93094 18.6551 5.39206 19.3189 6.06392L19.3485 6.09393L19.3907 6.09364C19.4934 6.09292 19.5972 6.09643 19.7036 6.10004C19.9483 6.10833 20.2068 6.1171 20.4978 6.07577Z" fill="black" stroke="white" stroke-width="0.2"/>
</g>
<defs>
<clipPath id="clip0_1_2356">
<rect width="24" height="24" fill="white" transform="translate(0 0.537354)"/>
</clipPath>
</defs>
</svg>
