<svg width="24" height="25" viewBox="0 0 24 25" fill="none" xmlns="http://www.w3.org/2000/svg">
<path d="M11.5 22.1982C5.85 22.1982 1.25 17.5982 1.25 11.9482C1.25 6.29824 5.85 1.69824 11.5 1.69824C17.15 1.69824 21.75 6.29824 21.75 11.9482C21.75 17.5982 17.15 22.1982 11.5 22.1982ZM11.5 3.19824C6.67 3.19824 2.75 7.12824 2.75 11.9482C2.75 16.7682 6.67 20.6982 11.5 20.6982C16.33 20.6982 20.25 16.7682 20.25 11.9482C20.25 7.12824 16.33 3.19824 11.5 3.19824Z" fill="#0F4D68"/>
<path d="M22.0004 23.1982C21.8104 23.1982 21.6204 23.1282 21.4704 22.9782L19.4704 20.9782C19.1804 20.6882 19.1804 20.2082 19.4704 19.9182C19.7604 19.6282 20.2404 19.6282 20.5304 19.9182L22.5304 21.9182C22.8204 22.2082 22.8204 22.6882 22.5304 22.9782C22.3804 23.1282 22.1904 23.1982 22.0004 23.1982Z" fill="#0F4D68"/>
</svg>
