<svg width="80" height="81" viewBox="0 0 80 81" fill="none" xmlns="http://www.w3.org/2000/svg">
<path opacity="0.3" d="M80 40.5374C80 62.6287 62.0914 80.5374 40 80.5374C17.9086 80.5374 0 62.6287 0 40.5374C0 18.446 17.9086 0.537354 40 0.537354C62.0914 0.537354 80 18.446 80 40.5374ZM10.9071 40.5374C10.9071 56.6049 23.9325 69.6302 40 69.6302C56.0675 69.6302 69.0929 56.6049 69.0929 40.5374C69.0929 24.4698 56.0675 11.4445 40 11.4445C23.9325 11.4445 10.9071 24.4698 10.9071 40.5374Z" fill="#B5CAD4"/>
<circle cx="40" cy="40.5374" r="29" fill="#0F4D68"/>
<path d="M31.667 32.2041V28.8707C31.667 27.9055 31.9464 26.961 32.4714 26.1511C32.9965 25.3411 33.7447 24.7005 34.6258 24.3065C35.5069 23.9124 36.4832 23.7819 37.4369 23.9305C38.3906 24.0791 39.2809 24.5006 40.0003 25.1441C40.7197 24.5006 41.61 24.0791 42.5637 23.9305C43.5174 23.7819 44.4937 23.9124 45.3749 24.3065C46.256 24.7005 47.0042 25.3411 47.5292 26.1511C48.0543 26.961 48.3336 27.9055 48.3337 28.8707V32.2041H50.8337C51.4967 32.2041 52.1326 32.4675 52.6014 32.9363C53.0703 33.4051 53.3337 34.041 53.3337 34.7041V51.3791C53.3337 52.924 52.72 54.4056 51.6276 55.498C50.5352 56.5904 49.0535 57.2041 47.5087 57.2041H33.3337C31.5655 57.2041 29.8699 56.5017 28.6196 55.2515C27.3694 54.0012 26.667 52.3055 26.667 50.5374V34.7041C26.667 34.041 26.9304 33.4051 27.3992 32.9363C27.8681 32.4675 28.504 32.2041 29.167 32.2041H31.667ZM42.7253 54.7041C42.0454 53.7287 41.6818 52.568 41.6837 51.3791V34.7041H29.167V50.5374C29.167 51.0846 29.2748 51.6264 29.4842 52.1319C29.6936 52.6374 30.0005 53.0968 30.3874 53.4837C30.7743 53.8706 31.2336 54.1775 31.7391 54.3869C32.2447 54.5963 32.7865 54.7041 33.3337 54.7041H42.7253ZM39.167 32.2041V28.8707C39.167 28.2077 38.9036 27.5718 38.4348 27.103C37.9659 26.6341 37.33 26.3707 36.667 26.3707C36.004 26.3707 35.3681 26.6341 34.8992 27.103C34.4304 27.5718 34.167 28.2077 34.167 28.8707V32.2041H39.167ZM41.667 32.2041H45.8337V28.8707C45.8337 28.3561 45.6749 27.854 45.379 27.433C45.0832 27.012 44.6645 26.6925 44.1803 26.5182C43.6961 26.344 43.1699 26.3233 42.6736 26.4592C42.1773 26.5951 41.7349 26.8808 41.407 27.2774C41.5753 27.7774 41.667 28.3141 41.667 28.8707V32.2041ZM44.1837 51.3791C44.1837 52.2609 44.534 53.1066 45.1575 53.7302C45.7811 54.3538 46.6268 54.7041 47.5087 54.7041C48.3905 54.7041 49.2362 54.3538 49.8598 53.7302C50.4833 53.1066 50.8337 52.2609 50.8337 51.3791V34.7041H44.1837V51.3791Z" fill="white"/>
</svg>
