<svg width="80" height="81" viewBox="0 0 80 81" fill="none" xmlns="http://www.w3.org/2000/svg">
<path opacity="0.3" d="M80 40.5374C80 62.6287 62.0914 80.5374 40 80.5374C17.9086 80.5374 0 62.6287 0 40.5374C0 18.446 17.9086 0.537354 40 0.537354C62.0914 0.537354 80 18.446 80 40.5374ZM10.9071 40.5374C10.9071 56.6049 23.9325 69.6302 40 69.6302C56.0675 69.6302 69.0929 56.6049 69.0929 40.5374C69.0929 24.4698 56.0675 11.4445 40 11.4445C23.9325 11.4445 10.9071 24.4698 10.9071 40.5374Z" fill="white"/>
<circle cx="40" cy="40.5374" r="29" fill="white"/>
<path d="M40.0003 57.8101C49.5397 57.8101 57.273 50.0768 57.273 40.5374C57.273 30.9979 49.5397 23.2646 40.0003 23.2646C30.4608 23.2646 22.7275 30.9979 22.7275 40.5374C22.7275 50.0768 30.4608 57.8101 40.0003 57.8101Z" stroke="black" stroke-width="2" stroke-linecap="round" stroke-linejoin="round"/>
<path d="M45.0914 35.0844C44.762 34.5132 44.2834 34.0423 43.707 33.7221C43.1305 33.4019 42.4777 33.2445 41.8186 33.2667H38.1823C37.2178 33.2667 36.2929 33.6497 35.611 34.3315C34.929 35.0132 34.5459 35.9379 34.5459 36.902C34.5459 37.8662 34.929 38.7909 35.611 39.4726C36.2929 40.1544 37.2178 40.5374 38.1823 40.5374H41.8186C42.783 40.5374 43.708 40.9204 44.3899 41.6021C45.0719 42.2839 45.455 43.2086 45.455 44.1727C45.455 45.1369 45.0719 46.0615 44.3899 46.7433C43.708 47.425 42.783 47.808 41.8186 47.808H38.1823C37.5232 47.8302 36.8704 47.6728 36.2939 47.3526C35.7174 47.0324 35.2389 46.5616 34.9095 45.9904" stroke="black" stroke-width="2.75" stroke-linecap="round" stroke-linejoin="round"/>
<path d="M40 28.7192V32.6586M40 48.4162V52.3556" stroke="black" stroke-width="2.75" stroke-linecap="round" stroke-linejoin="round"/>
</svg>
