<svg width="81" height="81" viewBox="0 0 81 81" fill="none" xmlns="http://www.w3.org/2000/svg">
<path opacity="0.3" d="M80.5 40.5374C80.5 62.6287 62.5914 80.5374 40.5 80.5374C18.4086 80.5374 0.5 62.6287 0.5 40.5374C0.5 18.446 18.4086 0.537354 40.5 0.537354C62.5914 0.537354 80.5 18.446 80.5 40.5374ZM11.4071 40.5374C11.4071 56.6049 24.4325 69.6302 40.5 69.6302C56.5675 69.6302 69.5929 56.6049 69.5929 40.5374C69.5929 24.4698 56.5675 11.4445 40.5 11.4445C24.4325 11.4445 11.4071 24.4698 11.4071 40.5374Z" fill="#B5CAD4"/>
<circle cx="40.5" cy="40.5374" r="29" fill="#0F4D68"/>
<path d="M40.9278 38.6829V39.1829L41.4278 39.1829C42.0916 39.1829 42.739 39.3887 43.281 39.7719C43.8229 40.155 44.2328 40.6968 44.4541 41.3226C44.4727 41.3754 44.4808 41.4314 44.4778 41.4874C44.4748 41.5434 44.4608 41.5983 44.4366 41.649C44.4124 41.6996 44.3784 41.745 44.3367 41.7825C44.295 41.82 44.2463 41.8489 44.1933 41.8676C44.1404 41.8863 44.0844 41.8944 44.0283 41.8914C43.9723 41.8884 43.9174 41.8744 43.8667 41.8502C43.7645 41.8013 43.6858 41.7138 43.6481 41.607L43.648 41.6067C43.4856 41.1476 43.1849 40.7502 42.7873 40.4692C42.3896 40.1881 41.9146 40.0373 41.4277 40.0374L40.9278 40.0375V40.5374V44.2464V44.7464H41.4278C42.2789 44.7464 43.0952 45.0845 43.697 45.6864C44.2988 46.2882 44.6369 47.1044 44.6369 47.9555C44.6369 48.8066 44.2988 49.6228 43.697 50.2246C43.0952 50.8264 42.2789 51.1645 41.4278 51.1645H40.9278V51.6645V52.0918H40.0733V51.6645V51.1646L39.5733 51.1645C38.9096 51.1645 38.2621 50.9588 37.7202 50.5756C37.1782 50.1924 36.7684 49.6506 36.5471 49.0248L36.5472 49.0248L36.5422 49.0117C36.5216 48.9584 36.512 48.9015 36.5138 48.8444C36.5156 48.7873 36.5289 48.7311 36.5528 48.6792C36.5767 48.6273 36.6107 48.5808 36.6529 48.5423C36.6952 48.5038 36.7447 48.4741 36.7985 48.4551C36.8524 48.4361 36.9095 48.428 36.9665 48.4315C37.0236 48.4349 37.0793 48.4497 37.1305 48.4751C37.1817 48.5005 37.2273 48.5358 37.2646 48.5791C37.3019 48.6224 37.3301 48.6727 37.3476 48.7271L37.3499 48.7342L37.3523 48.7412C37.6768 49.6559 38.5484 50.31 39.5733 50.31H40.0733V49.81V46.101V45.601H39.5733C38.7222 45.601 37.906 45.2629 37.3042 44.6611C36.7024 44.0593 36.3643 43.243 36.3643 42.3919C36.3643 41.5408 36.7024 40.7246 37.3042 40.1228C37.906 39.521 38.7222 39.1829 39.5733 39.1829H40.0733V38.6829V38.2556H40.9278V38.6829ZM40.0733 40.5374V40.0374H39.5733C38.9488 40.0374 38.35 40.2855 37.9084 40.727C37.4668 41.1686 37.2188 41.7675 37.2188 42.3919C37.2188 43.0164 37.4668 43.6153 37.9084 44.0568C38.35 44.4984 38.9488 44.7464 39.5733 44.7464H40.0733V44.2464V40.5374ZM40.9278 49.81V50.31H41.4278C42.0523 50.31 42.6512 50.062 43.0927 49.6204C43.5343 49.1788 43.7824 48.58 43.7824 47.9555C43.7824 47.331 43.5343 46.7322 43.0927 46.2906C42.6512 45.849 42.0523 45.601 41.4278 45.601H40.9278V46.101V49.81Z" fill="#FAFAFA" stroke="#FAFAFA"/>
<path d="M47.7695 33.1144L48.0001 33.3575C49.8981 35.3583 51.4858 37.632 52.7105 40.103L52.7115 40.105C53.9873 42.7075 54.7037 45.3506 54.5867 47.6673L54.5867 47.6673C54.4723 49.9284 53.5716 51.8944 51.5218 53.3432L51.5218 53.3432C49.4129 54.8333 45.9467 55.8708 40.5354 55.8708C35.1198 55.8708 31.6397 54.8513 29.5132 53.3794L29.5129 53.3792C27.4494 51.9492 26.5376 50.0092 26.4101 47.7746L47.7695 33.1144ZM47.7695 33.1144L47.457 33.2353M47.7695 33.1144L47.457 33.2353M47.457 33.2353C43.1083 34.917 37.8707 34.917 33.5219 33.2371L33.3417 33.7035L32.9752 33.3634C31.1573 35.3228 29.4657 37.7269 28.251 40.2301L28.2509 40.2302M47.457 33.2353L28.2509 40.2302M28.2509 40.2302C26.9804 42.8495 26.2784 45.4804 26.4101 47.7744L28.2509 40.2302ZM50.3428 26.7186C50.7832 26.9365 51.1642 27.1448 51.4775 27.3315L48.3457 31.9097L48.114 32.2484L48.4009 32.5417C50.3394 34.5233 52.1697 37.0536 53.4805 39.7291C54.7935 42.4093 55.5679 45.1997 55.441 47.7107C55.3151 50.2009 54.3054 52.4235 52.0163 54.0407C49.7051 55.6735 46.0382 56.7253 40.5364 56.7253C35.0332 56.7253 31.3544 55.6923 29.028 54.0813C26.7245 52.4861 25.6991 50.2915 25.558 47.8229C25.4157 45.3323 26.1758 42.5525 27.4835 39.8573C28.7889 37.1671 30.6229 34.597 32.5812 32.5365L32.8589 32.2443L32.6323 31.911L29.5225 27.3351C29.6798 27.2424 29.8536 27.1447 30.043 27.0438L30.043 27.0438L30.0447 27.0429C30.2353 26.9404 30.4408 26.8349 30.6614 26.7274L30.8573 26.6318C33.1034 25.5612 36.6645 24.3467 40.5364 24.3467C44.4385 24.3467 47.9975 25.5801 50.2165 26.6573L50.3412 26.7178C50.3417 26.7181 50.3423 26.7183 50.3428 26.7186ZM49.7117 28.399L50.2968 27.5436L49.2631 27.618C46.6696 27.8047 43.6003 28.412 40.6554 29.2646C38.6714 29.8378 36.4387 29.7565 34.3339 29.3683C33.8046 29.2702 33.279 29.1534 32.758 29.0181L31.4726 28.6844L32.2188 29.783L33.9991 32.4043L34.091 32.5396L34.245 32.5945C38.1692 33.9915 42.7996 33.9915 46.7245 32.5964L46.5571 32.1253L46.9698 32.4076L49.7117 28.399ZM34.4877 28.5277L34.4881 28.5278C36.523 28.9026 38.6079 28.967 40.4168 28.4431L40.4175 28.4428C42.3859 27.8694 44.388 27.4184 46.4122 27.0924L46.4768 26.12C44.7353 25.5957 42.6905 25.2012 40.5354 25.2012C37.2536 25.2012 34.2063 26.1151 32.08 27.0176L32.2754 27.4778L32.1328 27.9571C32.8897 28.1822 33.6821 28.3786 34.4877 28.5277Z" fill="#FAFAFA" stroke="#FAFAFA"/>
</svg>
