<svg width="81" height="81" viewBox="0 0 81 81" fill="none" xmlns="http://www.w3.org/2000/svg">
<path opacity="0.3" d="M80.5 40.5374C80.5 62.6287 62.5914 80.5374 40.5 80.5374C18.4086 80.5374 0.5 62.6287 0.5 40.5374C0.5 18.446 18.4086 0.537354 40.5 0.537354C62.5914 0.537354 80.5 18.446 80.5 40.5374ZM11.4071 40.5374C11.4071 56.6049 24.4325 69.6302 40.5 69.6302C56.5675 69.6302 69.5929 56.6049 69.5929 40.5374C69.5929 24.4698 56.5675 11.4445 40.5 11.4445C24.4325 11.4445 11.4071 24.4698 11.4071 40.5374Z" fill="#B5CAD4"/>
<circle cx="40.5" cy="40.5374" r="29" fill="#0F4D68"/>
<path d="M54.6416 25.5374H47.9883L48.8216 33.8707C48.8216 33.8707 50.4883 35.5374 52.9883 35.5374C54.3006 35.5391 55.5684 35.0614 56.5533 34.194C56.6574 34.0967 56.735 33.9745 56.7787 33.8389C56.8224 33.7033 56.8309 33.5588 56.8033 33.419L55.6266 26.3707C55.5873 26.1378 55.4668 25.9264 55.2865 25.7739C55.1062 25.6214 54.8778 25.5376 54.6416 25.5374V25.5374Z" stroke="white" stroke-width="2"/>
<path d="M47.9883 25.5374L48.8216 33.8707C48.8216 33.8707 47.1549 35.5374 44.6549 35.5374C42.1549 35.5374 40.4883 33.8707 40.4883 33.8707V25.5374H47.9883Z" stroke="#FAFAFA" stroke-width="2"/>
<path d="M40.4886 25.5374V33.8707C40.4886 33.8707 38.8219 35.5374 36.3219 35.5374C33.8219 35.5374 32.1553 33.8707 32.1553 33.8707L32.9886 25.5374H40.4886Z" stroke="#FAFAFA" stroke-width="2"/>
<path d="M32.9883 25.5374H26.3366C26.0999 25.5373 25.8709 25.6211 25.6902 25.774C25.5096 25.9269 25.389 26.1389 25.3499 26.3724L24.1749 33.4207C24.1475 33.5605 24.156 33.7049 24.1997 33.8405C24.2435 33.9761 24.321 34.0983 24.4249 34.1957C24.9716 34.679 26.1933 35.539 27.9883 35.539C30.4883 35.539 32.1549 33.8724 32.1549 33.8724L32.9883 25.539V25.5374Z" stroke="#FAFAFA" stroke-width="2"/>
<path d="M25.5 35.5374V52.204C25.5 53.0881 25.8512 53.9359 26.4763 54.561C27.1014 55.1862 27.9493 55.5374 28.8333 55.5374H52.1667C53.0507 55.5374 53.8986 55.1862 54.5237 54.561C55.1488 53.9359 55.5 53.0881 55.5 52.204V35.5374" stroke="#FAFAFA" stroke-width="2"/>
<path d="M45.2217 55.5374V45.5374C45.2217 44.6534 44.8705 43.8055 44.2454 43.1804C43.6202 42.5553 42.7724 42.2041 41.8883 42.2041H38.555C37.671 42.2041 36.8231 42.5553 36.198 43.1804C35.5729 43.8055 35.2217 44.6534 35.2217 45.5374V55.5374" stroke="#FAFAFA" stroke-width="2" stroke-miterlimit="16"/>
</svg>
